<svg width="91" height="91" viewBox="0 0 91 91" fill="none" xmlns="http://www.w3.org/2000/svg">
<path d="M85.3765 87.9327H82.8203V7.66853C82.8203 6.82127 82.1336 6.13486 81.2867 6.13486H52.6574C51.8103 6.13486 51.1237 6.82127 51.1237 7.66853V14.3145H48.0564V7.66853C48.0564 6.82127 47.3696 6.13486 46.5227 6.13486H39.8765V1.53367C39.8765 0.68641 39.1897 0 38.3428 0C37.4959 0 36.8092 0.68641 36.8092 1.53367V6.13486H30.1631C29.316 6.13486 28.6295 6.82127 28.6295 7.66853V14.3145H24.0283C23.1812 14.3145 22.4946 15.001 22.4946 15.8482V28.6291H9.71372C8.86663 28.6291 8.18005 29.3155 8.18005 30.1628V87.9325H5.62351C4.77643 87.9325 4.08984 88.6189 4.08984 89.4662C4.08984 90.3134 4.77661 91 5.62351 91H85.3765C86.2236 91 86.9102 90.3136 86.9102 89.4663C86.9102 88.6191 86.2234 87.9327 85.3765 87.9327ZM31.6966 9.2022H44.9887V14.3145H31.6966V9.2022ZM26.5843 87.9327H25.5618V85.3765C25.5618 84.5292 24.875 83.8428 24.0281 83.8428C23.1812 83.8428 22.4944 84.5292 22.4944 85.3765V87.9327H21.4719V82.8203H26.5843V87.9327ZM36.809 48.5673V51.2058V87.9327H29.6516V81.2866C29.6516 80.4394 28.9648 79.753 28.1179 79.753H19.9382C19.0912 79.753 18.4046 80.4394 18.4046 81.2866V87.9327H11.2472V31.6966H36.809V48.5673ZM38.3426 28.6293H25.5618V17.3821H51.1235V47.0337H39.8765V41.9213H44.4777C45.3248 41.9213 46.0114 41.2349 46.0114 40.3876C46.0114 39.5404 45.3246 38.854 44.4777 38.854H39.8765V33.7416H44.4777C45.3248 33.7416 46.0114 33.0552 46.0114 32.208C46.0114 31.3607 45.3246 30.6743 44.4777 30.6743H39.8765V30.1631C39.8765 29.3157 39.1897 28.6293 38.3426 28.6293ZM65.4383 87.9327H39.8765V51.2058V50.1012H65.4383V87.9327ZM79.7528 87.9327H68.5056V48.5673V46.5223C68.5056 45.6751 67.8188 44.9887 66.9719 44.9887C66.125 44.9887 65.4383 45.6751 65.4383 46.5223V47.0335H62.3709V46.5223C62.3709 45.6751 61.6842 44.9887 60.8372 44.9887C59.9903 44.9887 59.3036 45.6751 59.3036 46.5223V47.0335H54.1912V15.8484V9.2022H79.753V87.9327H79.7528Z" fill="black"/>
<path d="M46.5225 84.8655C47.3696 84.8655 48.0562 84.1787 48.0562 83.3318V54.7027C48.0562 53.8555 47.3694 53.1691 46.5225 53.1691C45.6756 53.1691 44.9888 53.8555 44.9888 54.7027V83.332C44.9888 84.1789 45.6754 84.8655 46.5225 84.8655Z" fill="black"/>
<path d="M52.6574 84.8655C53.5045 84.8655 54.191 84.1787 54.191 83.3318V54.7027C54.191 53.8555 53.5043 53.1691 52.6574 53.1691C51.8105 53.1691 51.1237 53.8555 51.1237 54.7027V83.332C51.1235 84.1789 51.8103 84.8655 52.6574 84.8655Z" fill="black"/>
<path d="M58.792 84.8655C59.6391 84.8655 60.3257 84.1787 60.3257 83.3318V54.7027C60.3257 53.8555 59.6389 53.1691 58.792 53.1691C57.9451 53.1691 57.2584 53.8555 57.2584 54.7027V83.332C57.2584 84.1789 57.9451 84.8655 58.792 84.8655Z" fill="black"/>
<path d="M60.837 19.4269C61.6841 19.4269 62.3707 18.7405 62.3707 17.8932V15.8484C62.3707 15.0011 61.6839 14.3147 60.837 14.3147C59.9901 14.3147 59.3034 15.0011 59.3034 15.8484V17.8934C59.3034 18.7405 59.99 19.4269 60.837 19.4269Z" fill="black"/>
<path d="M66.9719 19.4269C67.819 19.4269 68.5056 18.7405 68.5056 17.8932V15.8484C68.5056 15.0011 67.8188 14.3147 66.9719 14.3147C66.125 14.3147 65.4382 15.0011 65.4382 15.8484V17.8934C65.4382 18.7405 66.1248 19.4269 66.9719 19.4269Z" fill="black"/>
<path d="M73.1068 19.4269C73.9538 19.4269 74.6404 18.7405 74.6404 17.8932V15.8484C74.6404 15.0011 73.9537 14.3147 73.1068 14.3147C72.2599 14.3147 71.5731 15.0011 71.5731 15.8484V17.8934C71.5731 18.7405 72.2597 19.4269 73.1068 19.4269Z" fill="black"/>
<path d="M60.837 29.6516C61.6841 29.6516 62.3707 28.9652 62.3707 28.1179V26.0729C62.3707 25.2257 61.6839 24.5392 60.837 24.5392C59.9901 24.5392 59.3034 25.2257 59.3034 26.0729V28.1179C59.3034 28.9652 59.99 29.6516 60.837 29.6516Z" fill="black"/>
<path d="M66.9719 29.6516C67.819 29.6516 68.5056 28.9652 68.5056 28.1179V26.0729C68.5056 25.2257 67.8188 24.5392 66.9719 24.5392C66.125 24.5392 65.4382 25.2257 65.4382 26.0729V28.1179C65.4382 28.9652 66.1248 29.6516 66.9719 29.6516Z" fill="black"/>
<path d="M73.1068 29.6516C73.9538 29.6516 74.6404 28.9652 74.6404 28.1179V26.0729C74.6404 25.2257 73.9537 24.5392 73.1068 24.5392C72.2599 24.5392 71.5731 25.2257 71.5731 26.0729V28.1179C71.5731 28.9652 72.2597 29.6516 73.1068 29.6516Z" fill="black"/>
<path d="M60.837 39.8765C61.6841 39.8765 62.3707 39.19 62.3707 38.3428V36.2978C62.3707 35.4505 61.6839 34.7641 60.837 34.7641C59.9901 34.7641 59.3034 35.4505 59.3034 36.2978V38.3428C59.3034 39.1899 59.99 39.8765 60.837 39.8765Z" fill="black"/>
<path d="M66.9719 39.8765C67.819 39.8765 68.5056 39.19 68.5056 38.3428V36.2978C68.5056 35.4505 67.8188 34.7641 66.9719 34.7641C66.125 34.7641 65.4382 35.4505 65.4382 36.2978V38.3428C65.4382 39.1899 66.1248 39.8765 66.9719 39.8765Z" fill="black"/>
<path d="M73.1068 39.8765C73.9538 39.8765 74.6404 39.19 74.6404 38.3428V36.2978C74.6404 35.4505 73.9537 34.7641 73.1068 34.7641C72.2599 34.7641 71.5731 35.4505 71.5731 36.2978V38.3428C71.5731 39.1899 72.2597 39.8765 73.1068 39.8765Z" fill="black"/>
<path d="M17.8932 43.9663C18.7403 43.9663 19.4269 43.2799 19.4269 42.4327V40.3876C19.4269 39.5404 18.7401 38.854 17.8932 38.854C17.0463 38.854 16.3596 39.5404 16.3596 40.3876V42.4327C16.3596 43.2797 17.0463 43.9663 17.8932 43.9663Z" fill="black"/>
<path d="M24.0281 43.9663C24.8752 43.9663 25.5618 43.2799 25.5618 42.4327V40.3876C25.5618 39.5404 24.875 38.854 24.0281 38.854C23.1812 38.854 22.4944 39.5404 22.4944 40.3876V42.4327C22.4944 43.2797 23.181 43.9663 24.0281 43.9663Z" fill="black"/>
<path d="M30.1629 43.9663C31.01 43.9663 31.6966 43.2799 31.6966 42.4327V40.3876C31.6966 39.5404 31.0098 38.854 30.1629 38.854C29.316 38.854 28.6293 39.5404 28.6293 40.3876V42.4327C28.6293 43.2797 29.3159 43.9663 30.1629 43.9663Z" fill="black"/>
<path d="M17.8932 54.191C18.7403 54.191 19.4269 53.5046 19.4269 52.6574V50.6123C19.4269 49.7651 18.7401 49.0787 17.8932 49.0787C17.0463 49.0787 16.3596 49.7651 16.3596 50.6123V52.6574C16.3596 53.5044 17.0463 54.191 17.8932 54.191Z" fill="black"/>
<path d="M24.0281 54.191C24.8752 54.191 25.5618 53.5046 25.5618 52.6574V50.6123C25.5618 49.7651 24.875 49.0787 24.0281 49.0787C23.1812 49.0787 22.4944 49.7651 22.4944 50.6123V52.6574C22.4944 53.5044 23.181 54.191 24.0281 54.191Z" fill="black"/>
<path d="M30.1629 54.191C31.01 54.191 31.6966 53.5046 31.6966 52.6574V50.6123C31.6966 49.7651 31.0098 49.0787 30.1629 49.0787C29.316 49.0787 28.6293 49.7651 28.6293 50.6123V52.6574C28.6293 53.5044 29.3159 54.191 30.1629 54.191Z" fill="black"/>
<path d="M17.8932 64.4157C18.7403 64.4157 19.4269 63.7293 19.4269 62.8821V60.837C19.4269 59.9898 18.7401 59.3034 17.8932 59.3034C17.0463 59.3034 16.3596 59.9898 16.3596 60.837V62.8821C16.3596 63.7293 17.0463 64.4157 17.8932 64.4157Z" fill="black"/>
<path d="M24.0281 64.4157C24.8752 64.4157 25.5618 63.7293 25.5618 62.8821V60.837C25.5618 59.9898 24.875 59.3034 24.0281 59.3034C23.1812 59.3034 22.4944 59.9898 22.4944 60.837V62.8821C22.4944 63.7293 23.181 64.4157 24.0281 64.4157Z" fill="black"/>
<path d="M30.1629 64.4157C31.01 64.4157 31.6966 63.7293 31.6966 62.8821V60.837C31.6966 59.9898 31.0098 59.3034 30.1629 59.3034C29.316 59.3034 28.6293 59.9898 28.6293 60.837V62.8821C28.6293 63.7293 29.3159 64.4157 30.1629 64.4157Z" fill="black"/>
<path d="M17.8932 74.6404C18.7403 74.6404 19.4269 73.954 19.4269 73.1068V71.0617C19.4269 70.2145 18.7401 69.5281 17.8932 69.5281C17.0463 69.5281 16.3596 70.2145 16.3596 71.0617V73.1068C16.3596 73.954 17.0463 74.6404 17.8932 74.6404Z" fill="black"/>
<path d="M24.0281 74.6404C24.8752 74.6404 25.5618 73.954 25.5618 73.1068V71.0617C25.5618 70.2145 24.875 69.5281 24.0281 69.5281C23.1812 69.5281 22.4944 70.2145 22.4944 71.0617V73.1068C22.4944 73.954 23.181 74.6404 24.0281 74.6404Z" fill="black"/>
<path d="M30.1629 74.6404C31.01 74.6404 31.6966 73.954 31.6966 73.1068V71.0617C31.6966 70.2145 31.0098 69.5281 30.1629 69.5281C29.316 69.5281 28.6293 70.2145 28.6293 71.0617V73.1068C28.6293 73.954 29.3159 74.6404 30.1629 74.6404Z" fill="black"/>
<path d="M73.1068 50.1012C73.9538 50.1012 74.6404 49.4148 74.6404 48.5675V46.5225C74.6404 45.6752 73.9537 44.9888 73.1068 44.9888C72.2599 44.9888 71.5731 45.6752 71.5731 46.5225V48.5675C71.5731 49.4146 72.2597 50.1012 73.1068 50.1012Z" fill="black"/>
<path d="M73.1068 60.3259C73.9538 60.3259 74.6404 59.6395 74.6404 58.7922V56.7472C74.6404 55.8999 73.9537 55.2135 73.1068 55.2135C72.2599 55.2135 71.5731 55.8999 71.5731 56.7472V58.7922C71.5731 59.6393 72.2597 60.3259 73.1068 60.3259Z" fill="black"/>
<path d="M73.1068 70.5506C73.9538 70.5506 74.6404 69.8642 74.6404 69.0169V66.9719C74.6404 66.1246 73.9537 65.4382 73.1068 65.4382C72.2599 65.4382 71.5731 66.1246 71.5731 66.9719V69.0169C71.5731 69.864 72.2597 70.5506 73.1068 70.5506Z" fill="black"/>
<path d="M73.1068 80.7753C73.9538 80.7753 74.6404 80.0889 74.6404 79.2416V77.1966C74.6404 76.3494 73.9537 75.6629 73.1068 75.6629C72.2599 75.6629 71.5731 76.3494 71.5731 77.1966V79.2416C71.5731 80.0887 72.2597 80.7753 73.1068 80.7753Z" fill="black"/>
<path d="M46.0112 24.0281C46.0112 23.1808 45.3244 22.4944 44.4775 22.4944H32.2078C31.3607 22.4944 30.6741 23.1808 30.6741 24.0281C30.6741 24.8753 31.3609 25.5618 32.2078 25.5618H44.4775C45.3246 25.5618 46.0112 24.8753 46.0112 24.0281Z" fill="black"/>
</svg>
