<svg width="30" height="30" viewBox="0 0 30 30" fill="none" xmlns="http://www.w3.org/2000/svg">
<path d="M15 0C6.71573 0 0 6.71573 0 15C0 23.2843 6.71573 30 15 30C23.2843 30 30 23.2843 30 15C29.9894 6.72016 23.2798 0.0106178 15 0ZM15.6435 28.6808V26.0425C15.6435 25.6871 15.3554 25.399 15 25.399C14.6446 25.399 14.3565 25.6871 14.3565 26.0425V28.6808C7.30043 28.344 1.65605 22.6996 1.31918 15.6435H3.95753C4.3129 15.6435 4.60103 15.3554 4.60103 15C4.60103 14.6446 4.3129 14.3565 3.95753 14.3565H1.31918C1.65605 7.30043 7.30043 1.65605 14.3565 1.31918V3.95753C14.3565 4.3129 14.6446 4.60103 15 4.60103C15.3554 4.60103 15.6435 4.3129 15.6435 3.95753V1.31918C22.6996 1.65605 28.344 7.30043 28.6808 14.3565H26.0425C25.6871 14.3565 25.399 14.6446 25.399 15C25.399 15.3554 25.6871 15.6435 26.0425 15.6435H26.0489H28.6873C28.3501 22.7019 22.7021 28.3472 15.6435 28.6808Z" fill="white"/>
<path d="M21.7889 20.9846L15.6435 14.7362V8.24323C15.6435 7.88786 15.3554 7.59973 15 7.59973C14.6446 7.59973 14.3565 7.88786 14.3565 8.24323V15C14.3572 15.1688 14.4242 15.3306 14.5431 15.4504L20.8687 21.8855C21.1175 22.1396 21.5252 22.1439 21.7793 21.8951C22.0334 21.6463 22.0377 21.2387 21.7889 20.9846Z" fill="white"/>
</svg>
