<svg width="175" height="37" viewBox="0 0 175 37" fill="none" xmlns="http://www.w3.org/2000/svg">
<path d="M10.9902 13.5684H21.1855V26.8926C19.8379 27.3379 18.4375 27.6953 16.9844 27.9648C15.5312 28.2227 13.8848 28.3516 12.0449 28.3516C9.49023 28.3516 7.32227 27.8477 5.54102 26.8398C3.75977 25.832 2.40625 24.3438 1.48047 22.375C0.554688 20.4062 0.0917969 17.9863 0.0917969 15.1152C0.0917969 12.4199 0.607422 10.0879 1.63867 8.11914C2.68164 6.15039 4.19922 4.62695 6.19141 3.54883C8.19531 2.4707 10.6387 1.93164 13.5215 1.93164C14.8809 1.93164 16.2227 2.07812 17.5469 2.37109C18.8711 2.66406 20.0723 3.04492 21.1504 3.51367L19.3398 7.87305C18.5547 7.47461 17.6582 7.14062 16.6504 6.87109C15.6426 6.60156 14.5879 6.4668 13.4863 6.4668C11.9043 6.4668 10.5273 6.83008 9.35547 7.55664C8.19531 8.2832 7.29297 9.30273 6.64844 10.6152C6.01562 11.916 5.69922 13.4512 5.69922 15.2207C5.69922 16.8965 5.92773 18.3848 6.38477 19.6855C6.8418 20.9746 7.5625 21.9883 8.54688 22.7266C9.53125 23.4531 10.8145 23.8164 12.3965 23.8164C13.1699 23.8164 13.8203 23.7812 14.3477 23.7109C14.8867 23.6289 15.3906 23.5469 15.8594 23.4648V18.1035H10.9902V13.5684ZM35.002 7.97852C36.8184 7.97852 38.3828 8.33008 39.6953 9.0332C41.0078 9.72461 42.0215 10.7324 42.7363 12.0566C43.4512 13.3809 43.8086 14.998 43.8086 16.9082V19.5098H31.1348C31.1934 21.0215 31.6445 22.2109 32.4883 23.0781C33.3438 23.9336 34.5273 24.3613 36.0391 24.3613C37.293 24.3613 38.4414 24.2324 39.4844 23.9746C40.5273 23.7168 41.5996 23.3301 42.7012 22.8145V26.9629C41.7285 27.4434 40.709 27.7949 39.6426 28.0176C38.5879 28.2402 37.3047 28.3516 35.793 28.3516C33.8242 28.3516 32.0781 27.9883 30.5547 27.2617C29.043 26.5352 27.8535 25.4277 26.9863 23.9395C26.1309 22.4512 25.7031 20.5762 25.7031 18.3145C25.7031 16.0176 26.0898 14.1074 26.8633 12.584C27.6484 11.0488 28.7383 9.90039 30.1328 9.13867C31.5273 8.36523 33.1504 7.97852 35.002 7.97852ZM35.0371 11.793C33.9941 11.793 33.127 12.127 32.4355 12.7949C31.7559 13.4629 31.3633 14.5117 31.2578 15.9414H38.7812C38.7695 15.1445 38.623 14.4355 38.3418 13.8145C38.0723 13.1934 37.6621 12.7012 37.1113 12.3379C36.5723 11.9746 35.8809 11.793 35.0371 11.793ZM66.0273 18.1387C66.0273 19.7793 65.8047 21.2324 65.3594 22.498C64.9258 23.7637 64.2871 24.8359 63.4434 25.7148C62.6113 26.582 61.6035 27.2383 60.4199 27.6836C59.248 28.1289 57.9238 28.3516 56.4473 28.3516C55.0645 28.3516 53.793 28.1289 52.6328 27.6836C51.4844 27.2383 50.4824 26.582 49.627 25.7148C48.7832 24.8359 48.127 23.7637 47.6582 22.498C47.2012 21.2324 46.9727 19.7793 46.9727 18.1387C46.9727 15.959 47.3594 14.1133 48.1328 12.6016C48.9062 11.0898 50.0078 9.94141 51.4375 9.15625C52.8672 8.37109 54.5723 7.97852 56.5527 7.97852C58.3926 7.97852 60.0215 8.37109 61.4395 9.15625C62.8691 9.94141 63.9883 11.0898 64.7969 12.6016C65.6172 14.1133 66.0273 15.959 66.0273 18.1387ZM52.4395 18.1387C52.4395 19.4277 52.5801 20.5117 52.8613 21.3906C53.1426 22.2695 53.582 22.9316 54.1797 23.377C54.7773 23.8223 55.5566 24.0449 56.5176 24.0449C57.4668 24.0449 58.2344 23.8223 58.8203 23.377C59.418 22.9316 59.8516 22.2695 60.1211 21.3906C60.4023 20.5117 60.543 19.4277 60.543 18.1387C60.543 16.8379 60.4023 15.7598 60.1211 14.9043C59.8516 14.0371 59.418 13.3867 58.8203 12.9531C58.2227 12.5195 57.4434 12.3027 56.4824 12.3027C55.0645 12.3027 54.0332 12.7891 53.3887 13.7617C52.7559 14.7344 52.4395 16.1934 52.4395 18.1387ZM81.3906 7.97852C83.6055 7.97852 85.3926 8.83984 86.752 10.5625C88.123 12.2852 88.8086 14.8105 88.8086 18.1387C88.8086 20.3652 88.4863 22.2402 87.8418 23.7637C87.1973 25.2754 86.3066 26.418 85.1699 27.1914C84.0332 27.9648 82.7266 28.3516 81.25 28.3516C80.3008 28.3516 79.4863 28.2344 78.8066 28C78.127 27.7539 77.5469 27.4434 77.0664 27.0684C76.5859 26.6816 76.1699 26.2715 75.8184 25.8379H75.5371C75.6309 26.3066 75.7012 26.7871 75.748 27.2793C75.7949 27.7715 75.8184 28.252 75.8184 28.7207V36.6484H70.457V8.34766H74.8164L75.5723 10.8965H75.8184C76.1699 10.3691 76.5977 9.88281 77.1016 9.4375C77.6055 8.99219 78.209 8.64062 78.9121 8.38281C79.627 8.11328 80.4531 7.97852 81.3906 7.97852ZM79.668 12.2676C78.7305 12.2676 77.9863 12.4609 77.4355 12.8477C76.8848 13.2344 76.4805 13.8145 76.2227 14.5879C75.9766 15.3613 75.8418 16.3398 75.8184 17.5234V18.1035C75.8184 19.3691 75.9355 20.4414 76.1699 21.3203C76.416 22.1992 76.8203 22.8672 77.3828 23.3242C77.957 23.7812 78.7422 24.0098 79.7383 24.0098C80.5586 24.0098 81.2324 23.7812 81.7598 23.3242C82.2871 22.8672 82.6797 22.1992 82.9375 21.3203C83.207 20.4297 83.3418 19.3457 83.3418 18.0684C83.3418 16.1465 83.043 14.6992 82.4453 13.7266C81.8477 12.7539 80.9219 12.2676 79.668 12.2676ZM111.098 18.1387C111.098 19.7793 110.875 21.2324 110.43 22.498C109.996 23.7637 109.357 24.8359 108.514 25.7148C107.682 26.582 106.674 27.2383 105.49 27.6836C104.318 28.1289 102.994 28.3516 101.518 28.3516C100.135 28.3516 98.8633 28.1289 97.7031 27.6836C96.5547 27.2383 95.5527 26.582 94.6973 25.7148C93.8535 24.8359 93.1973 23.7637 92.7285 22.498C92.2715 21.2324 92.043 19.7793 92.043 18.1387C92.043 15.959 92.4297 14.1133 93.2031 12.6016C93.9766 11.0898 95.0781 9.94141 96.5078 9.15625C97.9375 8.37109 99.6426 7.97852 101.623 7.97852C103.463 7.97852 105.092 8.37109 106.51 9.15625C107.939 9.94141 109.059 11.0898 109.867 12.6016C110.688 14.1133 111.098 15.959 111.098 18.1387ZM97.5098 18.1387C97.5098 19.4277 97.6504 20.5117 97.9316 21.3906C98.2129 22.2695 98.6523 22.9316 99.25 23.377C99.8477 23.8223 100.627 24.0449 101.588 24.0449C102.537 24.0449 103.305 23.8223 103.891 23.377C104.488 22.9316 104.922 22.2695 105.191 21.3906C105.473 20.5117 105.613 19.4277 105.613 18.1387C105.613 16.8379 105.473 15.7598 105.191 14.9043C104.922 14.0371 104.488 13.3867 103.891 12.9531C103.293 12.5195 102.514 12.3027 101.553 12.3027C100.135 12.3027 99.1035 12.7891 98.459 13.7617C97.8262 14.7344 97.5098 16.1934 97.5098 18.1387ZM126.496 7.97852C126.766 7.97852 127.076 7.99609 127.428 8.03125C127.791 8.05469 128.084 8.08984 128.307 8.13672L127.902 13.1641C127.727 13.1055 127.475 13.0645 127.146 13.041C126.83 13.0059 126.555 12.9883 126.32 12.9883C125.629 12.9883 124.955 13.0762 124.299 13.252C123.654 13.4277 123.074 13.7148 122.559 14.1133C122.043 14.5 121.633 15.0156 121.328 15.6602C121.035 16.293 120.889 17.0723 120.889 17.998V28H115.527V8.34766H119.588L120.379 11.6523H120.643C121.029 10.9844 121.51 10.375 122.084 9.82422C122.67 9.26172 123.332 8.81641 124.07 8.48828C124.82 8.14844 125.629 7.97852 126.496 7.97852ZM140.154 24.0801C140.74 24.0801 141.309 24.0215 141.859 23.9043C142.422 23.7871 142.979 23.6406 143.529 23.4648V27.4551C142.955 27.7129 142.24 27.9238 141.385 28.0879C140.541 28.2637 139.615 28.3516 138.607 28.3516C137.436 28.3516 136.381 28.1641 135.443 27.7891C134.518 27.4023 133.785 26.7402 133.246 25.8027C132.719 24.8535 132.455 23.5352 132.455 21.8477V12.373H129.889V10.1055L132.842 8.3125L134.389 4.16406H137.816V8.34766H143.318V12.373H137.816V21.8477C137.816 22.5977 138.027 23.1602 138.449 23.5352C138.883 23.8984 139.451 24.0801 140.154 24.0801ZM155.57 7.94336C158.207 7.94336 160.229 8.51758 161.635 9.66602C163.041 10.8145 163.744 12.5605 163.744 14.9043V28H160L158.963 25.3281H158.822C158.26 26.0312 157.686 26.6055 157.1 27.0508C156.514 27.4961 155.84 27.8242 155.078 28.0352C154.316 28.2461 153.391 28.3516 152.301 28.3516C151.141 28.3516 150.098 28.1289 149.172 27.6836C148.258 27.2383 147.537 26.5586 147.01 25.6445C146.482 24.7188 146.219 23.5469 146.219 22.1289C146.219 20.043 146.951 18.5078 148.416 17.5234C149.881 16.5273 152.078 15.9766 155.008 15.8711L158.418 15.7656V14.9043C158.418 13.873 158.148 13.1172 157.609 12.6367C157.07 12.1562 156.32 11.916 155.359 11.916C154.41 11.916 153.479 12.0508 152.564 12.3203C151.65 12.5898 150.736 12.9297 149.822 13.3398L148.047 9.71875C149.09 9.16797 150.256 8.73438 151.545 8.41797C152.846 8.10156 154.188 7.94336 155.57 7.94336ZM158.418 18.8945L156.344 18.9648C154.609 19.0117 153.402 19.3223 152.723 19.8965C152.055 20.4707 151.721 21.2266 151.721 22.1641C151.721 22.9844 151.961 23.5703 152.441 23.9219C152.922 24.2617 153.549 24.4316 154.322 24.4316C155.471 24.4316 156.438 24.0918 157.223 23.4121C158.02 22.7324 158.418 21.7656 158.418 20.5117V18.8945ZM174.643 28H169.281V0.648438H174.643V28Z" fill="white"/>
</svg>
