<svg width="30" height="30" viewBox="0 0 30 30" fill="none" xmlns="http://www.w3.org/2000/svg">
<g clip-path="url(#clip0_455_459)">
<path d="M29.9905 4.95102C29.9871 4.91709 29.9804 4.88365 29.9705 4.85102C29.9605 4.81871 29.9471 4.78752 29.9305 4.75802C29.9225 4.74402 29.921 4.72752 29.9115 4.71402C29.902 4.70052 29.89 4.69502 29.8805 4.68352C29.8582 4.65721 29.8332 4.63327 29.806 4.61202C29.7823 4.59302 29.7569 4.57627 29.73 4.56202C29.7021 4.54765 29.6728 4.53609 29.6425 4.52752C29.6098 4.51784 29.5764 4.51115 29.5425 4.50752C29.5275 4.50752 29.5145 4.49902 29.499 4.49902H0.5C0.484875 4.50127 0.469813 4.50427 0.455 4.50802C0.422438 4.51127 0.39025 4.51784 0.359 4.52752C0.328 4.53634 0.297812 4.54809 0.269 4.56252C0.242687 4.5769 0.217812 4.59365 0.1945 4.61252C0.167 4.63377 0.141875 4.6579 0.1195 4.68452C0.11 4.69602 0.097 4.70252 0.0885 4.71502C0.08 4.72752 0.0775 4.74502 0.0695 4.75902C0.0529375 4.78852 0.0395 4.81971 0.0295 4.85202C0.0195625 4.88465 0.012875 4.91809 0.0095 4.95202C0.0095 4.96852 0 4.98302 0 5.00202V25.001C0 25.2771 0.223875 25.501 0.5 25.501H29.5C29.7761 25.501 30 25.2771 30 25.001V5.00102C30 4.98402 29.992 4.96952 29.9905 4.95102ZM27.894 5.50102L15 14.3935L2.106 5.50102H27.894ZM29 24.501H1V5.95352L14.716 15.4125C14.8869 15.5305 15.1131 15.5305 15.284 15.4125L29 5.95352V24.501Z" fill="white"/>
</g>
<defs>
<clipPath id="clip0_455_459">
<rect width="30" height="30" fill="white"/>
</clipPath>
</defs>
</svg>
