<svg width="18" height="30" viewBox="0 0 18 30" fill="none" xmlns="http://www.w3.org/2000/svg">
<path d="M15.2443 0H2.00566C0.902715 0 0 0.911143 0 2.02629V27.9729C0 29.088 0.902715 30 2.00566 30H15.2443C16.3473 30 17.25 29.0897 17.25 27.9737V2.02629C17.25 0.911143 16.3473 0 15.2443 0ZM6.50735 1.46057H10.7426C10.8767 1.46057 10.9853 1.57029 10.9853 1.70657C10.9853 1.842 10.8767 1.95171 10.7426 1.95171H6.50735C6.3733 1.95171 6.26471 1.842 6.26471 1.70657C6.26471 1.57029 6.3733 1.46057 6.50735 1.46057ZM8.625 28.9869C8.07098 28.9869 7.62217 28.5334 7.62217 27.9729C7.62217 27.4123 8.07098 26.9597 8.625 26.9597C9.17902 26.9597 9.62783 27.4123 9.62783 27.9729C9.62783 28.5334 9.17902 28.9869 8.625 28.9869ZM15.8544 26.25H1.39564V3.21343H15.8544V26.25Z" fill="white"/>
</svg>
