<svg width="26" height="30" viewBox="0 0 26 30" fill="none" xmlns="http://www.w3.org/2000/svg">
<g clip-path="url(#clip0_455_454)">
<path d="M12.9999 1C6.93446 1 2 5.93217 2 11.9948C2 14.7798 3.75565 18.7148 7.2184 23.6904C9.7494 27.3276 12.2387 30.1422 12.3436 30.2603L12.9999 31L13.6564 30.2603C13.761 30.1422 16.2504 27.3276 18.7816 23.6904C22.2441 18.7148 24 14.7798 24 11.9948C24 5.93217 19.0653 1 12.9999 1ZM17.3507 22.6747C15.6399 25.1347 13.9108 27.2518 12.9999 28.3319C12.0913 27.2548 10.3686 25.1457 8.65896 22.6888C5.45062 18.0787 3.75473 14.3807 3.75473 11.9948C3.75473 6.89943 7.90216 2.75392 12.9999 2.75392C18.0978 2.75392 22.245 6.89943 22.245 11.9948C22.245 14.3781 20.5526 18.0712 17.3507 22.6747Z" fill="white"/>
<path d="M12.9999 4C9.14008 4 6 6.91579 6 10.4999C6 14.084 9.14008 17 12.9999 17C16.8599 17 20 14.084 20 10.4999C20 6.91579 16.8599 4 12.9999 4ZM12.9999 15.2431C10.1835 15.2431 7.892 13.1153 7.892 10.4999C7.892 7.88466 10.1835 5.75686 12.9999 5.75686C15.8165 5.75686 18.108 7.88466 18.108 10.4999C18.108 13.1153 15.8165 15.2431 12.9999 15.2431Z" fill="white"/>
</g>
<defs>
<clipPath id="clip0_455_454">
<rect width="26" height="30" fill="white"/>
</clipPath>
</defs>
</svg>
